<svg xmlns="http://www.w3.org/2000/svg" xmlns:svg="http://www.w3.org/2000/svg" id="svg392" width="410pt" height="70pt" version="1.1" viewBox="60 54 410 70"><metadata id="metadata2">Produced by OmniGraffle 6.6.2</metadata><g id="g390" fill="none" fill-opacity="1" stroke="none" stroke-dasharray="none" stroke-opacity="1"><title id="title6">Canvas 13</title><g id="g388"><title id="title10">Layer 1</title><rect id="rect12" width="5.669" height="5.669" x="62.362" y="116.22" fill="#fff"/><rect id="rect14" width="5.669" height="5.669" x="62.362" y="116.22" stroke="#000" stroke-linecap="round" stroke-linejoin="round" stroke-width="1"/><rect id="rect16" width="5.669" height="5.669" x="68.031" y="116.22" fill="#fff"/><rect id="rect18" width="5.669" height="5.669" x="68.031" y="116.22" stroke="#000" stroke-linecap="round" stroke-linejoin="round" stroke-width="1"/><rect id="rect20" width="5.669" height="5.669" x="73.701" y="116.22" fill="#fff"/><rect id="rect22" width="5.669" height="5.669" x="73.701" y="116.22" stroke="#000" stroke-linecap="round" stroke-linejoin="round" stroke-width="1"/><rect id="rect24" width="5.669" height="5.669" x="79.37" y="116.22" fill="#fff"/><rect id="rect26" width="5.669" height="5.669" x="79.37" y="116.22" stroke="#000" stroke-linecap="round" stroke-linejoin="round" stroke-width="1"/><rect id="rect28" width="5.669" height="5.669" x="87.874" y="116.22" fill="#fff"/><rect id="rect30" width="5.669" height="5.669" x="87.874" y="116.22" stroke="#000" stroke-linecap="round" stroke-linejoin="round" stroke-width="1"/><rect id="rect32" width="5.669" height="5.669" x="93.543" y="116.22" fill="#fff"/><rect id="rect34" width="5.669" height="5.669" x="93.543" y="116.22" stroke="#000" stroke-linecap="round" stroke-linejoin="round" stroke-width="1"/><rect id="rect36" width="5.669" height="5.669" x="99.213" y="116.22" fill="#fff"/><rect id="rect38" width="5.669" height="5.669" x="99.213" y="116.22" stroke="#000" stroke-linecap="round" stroke-linejoin="round" stroke-width="1"/><rect id="rect40" width="5.669" height="5.669" x="104.882" y="116.22" fill="#fff"/><rect id="rect42" width="5.669" height="5.669" x="104.882" y="116.22" stroke="#000" stroke-linecap="round" stroke-linejoin="round" stroke-width="1"/><rect id="rect44" width="5.669" height="5.669" x="113.386" y="116.22" fill="#fff"/><rect id="rect46" width="5.669" height="5.669" x="113.386" y="116.22" stroke="#000" stroke-linecap="round" stroke-linejoin="round" stroke-width="1"/><rect id="rect48" width="5.669" height="5.669" x="119.055" y="116.22" fill="#fff"/><rect id="rect50" width="5.669" height="5.669" x="119.055" y="116.22" stroke="#000" stroke-linecap="round" stroke-linejoin="round" stroke-width="1"/><rect id="rect52" width="5.669" height="5.669" x="124.724" y="116.22" fill="#fff"/><rect id="rect54" width="5.669" height="5.669" x="124.724" y="116.22" stroke="#000" stroke-linecap="round" stroke-linejoin="round" stroke-width="1"/><rect id="rect56" width="5.669" height="5.669" x="130.394" y="116.22" fill="#fff"/><rect id="rect58" width="5.669" height="5.669" x="130.394" y="116.22" stroke="#000" stroke-linecap="round" stroke-linejoin="round" stroke-width="1"/><rect id="rect60" width="5.669" height="5.669" x="138.898" y="116.22" fill="#fff"/><rect id="rect62" width="5.669" height="5.669" x="138.898" y="116.22" stroke="#000" stroke-linecap="round" stroke-linejoin="round" stroke-width="1"/><rect id="rect64" width="5.669" height="5.669" x="144.567" y="116.22" fill="#fff"/><rect id="rect66" width="5.669" height="5.669" x="144.567" y="116.22" stroke="#000" stroke-linecap="round" stroke-linejoin="round" stroke-width="1"/><rect id="rect68" width="5.669" height="5.669" x="150.236" y="116.22" fill="#fff"/><rect id="rect70" width="5.669" height="5.669" x="150.236" y="116.22" stroke="#000" stroke-linecap="round" stroke-linejoin="round" stroke-width="1"/><rect id="rect72" width="5.669" height="5.669" x="155.906" y="116.22" fill="#fff"/><rect id="rect74" width="5.669" height="5.669" x="155.906" y="116.22" stroke="#000" stroke-linecap="round" stroke-linejoin="round" stroke-width="1"/><rect id="rect76" width="5.669" height="5.669" x="100.63" y="85.039" fill="#fff"/><rect id="rect78" width="5.669" height="5.669" x="100.63" y="85.039" stroke="#000" stroke-linecap="round" stroke-linejoin="round" stroke-width="1"/><rect id="rect80" width="5.669" height="5.669" x="106.299" y="85.039" fill="#fff"/><rect id="rect82" width="5.669" height="5.669" x="106.299" y="85.039" stroke="#000" stroke-linecap="round" stroke-linejoin="round" stroke-width="1"/><rect id="rect84" width="5.669" height="5.669" x="111.969" y="85.039" fill="#fff"/><rect id="rect86" width="5.669" height="5.669" x="111.969" y="85.039" stroke="#000" stroke-linecap="round" stroke-linejoin="round" stroke-width="1"/><rect id="rect88" width="5.669" height="5.669" x="117.638" y="85.039" fill="#fff"/><rect id="rect90" width="5.669" height="5.669" x="117.638" y="85.039" stroke="#000" stroke-linecap="round" stroke-linejoin="round" stroke-width="1"/><line id="line92" x1="111.969" x2="73.701" y1="90.709" y2="116.22" stroke="#000" stroke-linecap="round" stroke-linejoin="round" stroke-width="1"/><line id="line94" x1="111.969" x2="99.213" y1="90.709" y2="116.22" stroke="#000" stroke-linecap="round" stroke-linejoin="round" stroke-width="1"/><line id="line96" x1="111.969" x2="124.724" y1="90.709" y2="116.22" stroke="#000" stroke-linecap="round" stroke-linejoin="round" stroke-width="1"/><line id="line98" x1="111.969" x2="150.236" y1="90.709" y2="116.22" stroke="#000" stroke-linecap="round" stroke-linejoin="round" stroke-width="1"/><rect id="rect100" width="5.669" height="5.669" x="164.409" y="116.22" fill="#fff"/><rect id="rect102" width="5.669" height="5.669" x="164.409" y="116.22" stroke="#000" stroke-linecap="round" stroke-linejoin="round" stroke-width="1"/><rect id="rect104" width="5.669" height="5.669" x="170.079" y="116.22" fill="#fff"/><rect id="rect106" width="5.669" height="5.669" x="170.079" y="116.22" stroke="#000" stroke-linecap="round" stroke-linejoin="round" stroke-width="1"/><rect id="rect108" width="5.669" height="5.669" x="175.748" y="116.22" fill="#fff"/><rect id="rect110" width="5.669" height="5.669" x="175.748" y="116.22" stroke="#000" stroke-linecap="round" stroke-linejoin="round" stroke-width="1"/><rect id="rect112" width="5.669" height="5.669" x="181.417" y="116.22" fill="#fff"/><rect id="rect114" width="5.669" height="5.669" x="181.417" y="116.22" stroke="#000" stroke-linecap="round" stroke-linejoin="round" stroke-width="1"/><rect id="rect116" width="5.669" height="5.669" x="189.921" y="116.22" fill="#fff"/><rect id="rect118" width="5.669" height="5.669" x="189.921" y="116.22" stroke="#000" stroke-linecap="round" stroke-linejoin="round" stroke-width="1"/><rect id="rect120" width="5.669" height="5.669" x="195.591" y="116.22" fill="#fff"/><rect id="rect122" width="5.669" height="5.669" x="195.591" y="116.22" stroke="#000" stroke-linecap="round" stroke-linejoin="round" stroke-width="1"/><rect id="rect124" width="5.669" height="5.669" x="201.26" y="116.22" fill="#fff"/><rect id="rect126" width="5.669" height="5.669" x="201.26" y="116.22" stroke="#000" stroke-linecap="round" stroke-linejoin="round" stroke-width="1"/><rect id="rect128" width="5.669" height="5.669" x="206.929" y="116.22" fill="#fff"/><rect id="rect130" width="5.669" height="5.669" x="206.929" y="116.22" stroke="#000" stroke-linecap="round" stroke-linejoin="round" stroke-width="1"/><rect id="rect132" width="5.669" height="5.669" x="215.433" y="116.22" fill="#fff"/><rect id="rect134" width="5.669" height="5.669" x="215.433" y="116.22" stroke="#000" stroke-linecap="round" stroke-linejoin="round" stroke-width="1"/><rect id="rect136" width="5.669" height="5.669" x="221.102" y="116.22" fill="#fff"/><rect id="rect138" width="5.669" height="5.669" x="221.102" y="116.22" stroke="#000" stroke-linecap="round" stroke-linejoin="round" stroke-width="1"/><rect id="rect140" width="5.669" height="5.669" x="226.772" y="116.22" fill="#fff"/><rect id="rect142" width="5.669" height="5.669" x="226.772" y="116.22" stroke="#000" stroke-linecap="round" stroke-linejoin="round" stroke-width="1"/><rect id="rect144" width="5.669" height="5.669" x="232.441" y="116.22" fill="#fff"/><rect id="rect146" width="5.669" height="5.669" x="232.441" y="116.22" stroke="#000" stroke-linecap="round" stroke-linejoin="round" stroke-width="1"/><rect id="rect148" width="5.669" height="5.669" x="240.945" y="116.22" fill="#fff"/><rect id="rect150" width="5.669" height="5.669" x="240.945" y="116.22" stroke="#000" stroke-linecap="round" stroke-linejoin="round" stroke-width="1"/><rect id="rect152" width="5.669" height="5.669" x="246.614" y="116.22" fill="#fff"/><rect id="rect154" width="5.669" height="5.669" x="246.614" y="116.22" stroke="#000" stroke-linecap="round" stroke-linejoin="round" stroke-width="1"/><rect id="rect156" width="5.669" height="5.669" x="252.283" y="116.22" fill="#fff"/><rect id="rect158" width="5.669" height="5.669" x="252.283" y="116.22" stroke="#000" stroke-linecap="round" stroke-linejoin="round" stroke-width="1"/><rect id="rect160" width="5.669" height="5.669" x="257.953" y="116.22" fill="#fff"/><rect id="rect162" width="5.669" height="5.669" x="257.953" y="116.22" stroke="#000" stroke-linecap="round" stroke-linejoin="round" stroke-width="1"/><rect id="rect164" width="5.669" height="5.669" x="202.677" y="85.039" fill="#fff"/><rect id="rect166" width="5.669" height="5.669" x="202.677" y="85.039" stroke="#000" stroke-linecap="round" stroke-linejoin="round" stroke-width="1"/><rect id="rect168" width="5.669" height="5.669" x="208.346" y="85.039" fill="#fff"/><rect id="rect170" width="5.669" height="5.669" x="208.346" y="85.039" stroke="#000" stroke-linecap="round" stroke-linejoin="round" stroke-width="1"/><rect id="rect172" width="5.669" height="5.669" x="214.016" y="85.039" fill="#fff"/><rect id="rect174" width="5.669" height="5.669" x="214.016" y="85.039" stroke="#000" stroke-linecap="round" stroke-linejoin="round" stroke-width="1"/><rect id="rect176" width="5.669" height="5.669" x="219.685" y="85.039" fill="#fff"/><rect id="rect178" width="5.669" height="5.669" x="219.685" y="85.039" stroke="#000" stroke-linecap="round" stroke-linejoin="round" stroke-width="1"/><line id="line180" x1="214.016" x2="175.748" y1="90.709" y2="116.22" stroke="#000" stroke-linecap="round" stroke-linejoin="round" stroke-width="1"/><line id="line182" x1="214.016" x2="201.26" y1="90.709" y2="116.22" stroke="#000" stroke-linecap="round" stroke-linejoin="round" stroke-width="1"/><line id="line184" x1="214.016" x2="226.772" y1="90.709" y2="116.22" stroke="#000" stroke-linecap="round" stroke-linejoin="round" stroke-width="1"/><line id="line186" x1="214.016" x2="252.283" y1="90.709" y2="116.22" stroke="#000" stroke-linecap="round" stroke-linejoin="round" stroke-width="1"/><rect id="rect188" width="5.669" height="5.669" x="266.457" y="116.22" fill="#fff"/><rect id="rect190" width="5.669" height="5.669" x="266.457" y="116.22" stroke="#000" stroke-linecap="round" stroke-linejoin="round" stroke-width="1"/><rect id="rect192" width="5.669" height="5.669" x="272.126" y="116.22" fill="#fff"/><rect id="rect194" width="5.669" height="5.669" x="272.126" y="116.22" stroke="#000" stroke-linecap="round" stroke-linejoin="round" stroke-width="1"/><rect id="rect196" width="5.669" height="5.669" x="277.795" y="116.22" fill="#fff"/><rect id="rect198" width="5.669" height="5.669" x="277.795" y="116.22" stroke="#000" stroke-linecap="round" stroke-linejoin="round" stroke-width="1"/><rect id="rect200" width="5.669" height="5.669" x="283.465" y="116.22" fill="#fff"/><rect id="rect202" width="5.669" height="5.669" x="283.465" y="116.22" stroke="#000" stroke-linecap="round" stroke-linejoin="round" stroke-width="1"/><rect id="rect204" width="5.669" height="5.669" x="291.969" y="116.22" fill="#fff"/><rect id="rect206" width="5.669" height="5.669" x="291.969" y="116.22" stroke="#000" stroke-linecap="round" stroke-linejoin="round" stroke-width="1"/><rect id="rect208" width="5.669" height="5.669" x="297.638" y="116.22" fill="#fff"/><rect id="rect210" width="5.669" height="5.669" x="297.638" y="116.22" stroke="#000" stroke-linecap="round" stroke-linejoin="round" stroke-width="1"/><rect id="rect212" width="5.669" height="5.669" x="303.307" y="116.22" fill="#fff"/><rect id="rect214" width="5.669" height="5.669" x="303.307" y="116.22" stroke="#000" stroke-linecap="round" stroke-linejoin="round" stroke-width="1"/><rect id="rect216" width="5.669" height="5.669" x="308.976" y="116.22" fill="#fff"/><rect id="rect218" width="5.669" height="5.669" x="308.976" y="116.22" stroke="#000" stroke-linecap="round" stroke-linejoin="round" stroke-width="1"/><rect id="rect220" width="5.669" height="5.669" x="317.48" y="116.22" fill="#fff"/><rect id="rect222" width="5.669" height="5.669" x="317.48" y="116.22" stroke="#000" stroke-linecap="round" stroke-linejoin="round" stroke-width="1"/><rect id="rect224" width="5.669" height="5.669" x="323.15" y="116.22" fill="#fff"/><rect id="rect226" width="5.669" height="5.669" x="323.15" y="116.22" stroke="#000" stroke-linecap="round" stroke-linejoin="round" stroke-width="1"/><rect id="rect228" width="5.669" height="5.669" x="328.819" y="116.22" fill="#fff"/><rect id="rect230" width="5.669" height="5.669" x="328.819" y="116.22" stroke="#000" stroke-linecap="round" stroke-linejoin="round" stroke-width="1"/><rect id="rect232" width="5.669" height="5.669" x="334.488" y="116.22" fill="#fff"/><rect id="rect234" width="5.669" height="5.669" x="334.488" y="116.22" stroke="#000" stroke-linecap="round" stroke-linejoin="round" stroke-width="1"/><rect id="rect236" width="5.669" height="5.669" x="342.992" y="116.22" fill="#fff"/><rect id="rect238" width="5.669" height="5.669" x="342.992" y="116.22" stroke="#000" stroke-linecap="round" stroke-linejoin="round" stroke-width="1"/><rect id="rect240" width="5.669" height="5.669" x="348.661" y="116.22" fill="#fff"/><rect id="rect242" width="5.669" height="5.669" x="348.661" y="116.22" stroke="#000" stroke-linecap="round" stroke-linejoin="round" stroke-width="1"/><rect id="rect244" width="5.669" height="5.669" x="354.331" y="116.22" fill="#fff"/><rect id="rect246" width="5.669" height="5.669" x="354.331" y="116.22" stroke="#000" stroke-linecap="round" stroke-linejoin="round" stroke-width="1"/><rect id="rect248" width="5.669" height="5.669" x="360" y="116.22" fill="#fff"/><rect id="rect250" width="5.669" height="5.669" x="360" y="116.22" stroke="#000" stroke-linecap="round" stroke-linejoin="round" stroke-width="1"/><rect id="rect252" width="5.669" height="5.669" x="304.724" y="85.039" fill="#fff"/><rect id="rect254" width="5.669" height="5.669" x="304.724" y="85.039" stroke="#000" stroke-linecap="round" stroke-linejoin="round" stroke-width="1"/><rect id="rect256" width="5.669" height="5.669" x="310.394" y="85.039" fill="#fff"/><rect id="rect258" width="5.669" height="5.669" x="310.394" y="85.039" stroke="#000" stroke-linecap="round" stroke-linejoin="round" stroke-width="1"/><rect id="rect260" width="5.669" height="5.669" x="316.063" y="85.039" fill="#fff"/><rect id="rect262" width="5.669" height="5.669" x="316.063" y="85.039" stroke="#000" stroke-linecap="round" stroke-linejoin="round" stroke-width="1"/><rect id="rect264" width="5.669" height="5.669" x="321.732" y="85.039" fill="#fff"/><rect id="rect266" width="5.669" height="5.669" x="321.732" y="85.039" stroke="#000" stroke-linecap="round" stroke-linejoin="round" stroke-width="1"/><line id="line268" x1="316.063" x2="277.795" y1="90.709" y2="116.22" stroke="#000" stroke-linecap="round" stroke-linejoin="round" stroke-width="1"/><line id="line270" x1="316.063" x2="303.307" y1="90.709" y2="116.22" stroke="#000" stroke-linecap="round" stroke-linejoin="round" stroke-width="1"/><line id="line272" x1="316.063" x2="328.819" y1="90.709" y2="116.22" stroke="#000" stroke-linecap="round" stroke-linejoin="round" stroke-width="1"/><line id="line274" x1="316.063" x2="354.331" y1="90.709" y2="116.22" stroke="#000" stroke-linecap="round" stroke-linejoin="round" stroke-width="1"/><rect id="rect276" width="5.669" height="5.669" x="368.504" y="116.22" fill="#fff"/><rect id="rect278" width="5.669" height="5.669" x="368.504" y="116.22" stroke="#000" stroke-linecap="round" stroke-linejoin="round" stroke-width="1"/><rect id="rect280" width="5.669" height="5.669" x="374.173" y="116.22" fill="#fff"/><rect id="rect282" width="5.669" height="5.669" x="374.173" y="116.22" stroke="#000" stroke-linecap="round" stroke-linejoin="round" stroke-width="1"/><rect id="rect284" width="5.669" height="5.669" x="379.843" y="116.22" fill="#fff"/><rect id="rect286" width="5.669" height="5.669" x="379.843" y="116.22" stroke="#000" stroke-linecap="round" stroke-linejoin="round" stroke-width="1"/><rect id="rect288" width="5.669" height="5.669" x="385.512" y="116.22" fill="#fff"/><rect id="rect290" width="5.669" height="5.669" x="385.512" y="116.22" stroke="#000" stroke-linecap="round" stroke-linejoin="round" stroke-width="1"/><rect id="rect292" width="5.669" height="5.669" x="394.016" y="116.22" fill="#fff"/><rect id="rect294" width="5.669" height="5.669" x="394.016" y="116.22" stroke="#000" stroke-linecap="round" stroke-linejoin="round" stroke-width="1"/><rect id="rect296" width="5.669" height="5.669" x="399.685" y="116.22" fill="#fff"/><rect id="rect298" width="5.669" height="5.669" x="399.685" y="116.22" stroke="#000" stroke-linecap="round" stroke-linejoin="round" stroke-width="1"/><rect id="rect300" width="5.669" height="5.669" x="405.354" y="116.22" fill="#fff"/><rect id="rect302" width="5.669" height="5.669" x="405.354" y="116.22" stroke="#000" stroke-linecap="round" stroke-linejoin="round" stroke-width="1"/><rect id="rect304" width="5.669" height="5.669" x="411.024" y="116.22" fill="#fff"/><rect id="rect306" width="5.669" height="5.669" x="411.024" y="116.22" stroke="#000" stroke-linecap="round" stroke-linejoin="round" stroke-width="1"/><rect id="rect308" width="5.669" height="5.669" x="419.528" y="116.22" fill="#fff"/><rect id="rect310" width="5.669" height="5.669" x="419.528" y="116.22" stroke="#000" stroke-linecap="round" stroke-linejoin="round" stroke-width="1"/><rect id="rect312" width="5.669" height="5.669" x="425.197" y="116.22" fill="#fff"/><rect id="rect314" width="5.669" height="5.669" x="425.197" y="116.22" stroke="#000" stroke-linecap="round" stroke-linejoin="round" stroke-width="1"/><rect id="rect316" width="5.669" height="5.669" x="430.866" y="116.22" fill="#fff"/><rect id="rect318" width="5.669" height="5.669" x="430.866" y="116.22" stroke="#000" stroke-linecap="round" stroke-linejoin="round" stroke-width="1"/><rect id="rect320" width="5.669" height="5.669" x="436.535" y="116.22" fill="#fff"/><rect id="rect322" width="5.669" height="5.669" x="436.535" y="116.22" stroke="#000" stroke-linecap="round" stroke-linejoin="round" stroke-width="1"/><rect id="rect324" width="5.669" height="5.669" x="445.039" y="116.22" fill="#fff"/><rect id="rect326" width="5.669" height="5.669" x="445.039" y="116.22" stroke="#000" stroke-linecap="round" stroke-linejoin="round" stroke-width="1"/><rect id="rect328" width="5.669" height="5.669" x="450.709" y="116.22" fill="#fff"/><rect id="rect330" width="5.669" height="5.669" x="450.709" y="116.22" stroke="#000" stroke-linecap="round" stroke-linejoin="round" stroke-width="1"/><rect id="rect332" width="5.669" height="5.669" x="456.378" y="116.22" fill="#fff"/><rect id="rect334" width="5.669" height="5.669" x="456.378" y="116.22" stroke="#000" stroke-linecap="round" stroke-linejoin="round" stroke-width="1"/><rect id="rect336" width="5.669" height="5.669" x="462.047" y="116.22" fill="#fff"/><rect id="rect338" width="5.669" height="5.669" x="462.047" y="116.22" stroke="#000" stroke-linecap="round" stroke-linejoin="round" stroke-width="1"/><rect id="rect340" width="5.669" height="5.669" x="406.772" y="85.039" fill="#fff"/><rect id="rect342" width="5.669" height="5.669" x="406.772" y="85.039" stroke="#000" stroke-linecap="round" stroke-linejoin="round" stroke-width="1"/><rect id="rect344" width="5.669" height="5.669" x="412.441" y="85.039" fill="#fff"/><rect id="rect346" width="5.669" height="5.669" x="412.441" y="85.039" stroke="#000" stroke-linecap="round" stroke-linejoin="round" stroke-width="1"/><rect id="rect348" width="5.669" height="5.669" x="418.11" y="85.039" fill="#fff"/><rect id="rect350" width="5.669" height="5.669" x="418.11" y="85.039" stroke="#000" stroke-linecap="round" stroke-linejoin="round" stroke-width="1"/><rect id="rect352" width="5.669" height="5.669" x="423.78" y="85.039" fill="#fff"/><rect id="rect354" width="5.669" height="5.669" x="423.78" y="85.039" stroke="#000" stroke-linecap="round" stroke-linejoin="round" stroke-width="1"/><line id="line356" x1="418.11" x2="379.843" y1="90.709" y2="116.22" stroke="#000" stroke-linecap="round" stroke-linejoin="round" stroke-width="1"/><line id="line358" x1="418.11" x2="405.354" y1="90.709" y2="116.22" stroke="#000" stroke-linecap="round" stroke-linejoin="round" stroke-width="1"/><line id="line360" x1="418.11" x2="430.866" y1="90.709" y2="116.22" stroke="#000" stroke-linecap="round" stroke-linejoin="round" stroke-width="1"/><line id="line362" x1="418.11" x2="456.378" y1="90.709" y2="116.22" stroke="#000" stroke-linecap="round" stroke-linejoin="round" stroke-width="1"/><rect id="rect364" width="5.669" height="5.669" x="253.701" y="56.693" fill="#fff"/><rect id="rect366" width="5.669" height="5.669" x="253.701" y="56.693" stroke="#000" stroke-linecap="round" stroke-linejoin="round" stroke-width="1"/><rect id="rect368" width="5.669" height="5.669" x="259.37" y="56.693" fill="#fff"/><rect id="rect370" width="5.669" height="5.669" x="259.37" y="56.693" stroke="#000" stroke-linecap="round" stroke-linejoin="round" stroke-width="1"/><rect id="rect372" width="5.669" height="5.669" x="265.039" y="56.693" fill="#fff"/><rect id="rect374" width="5.669" height="5.669" x="265.039" y="56.693" stroke="#000" stroke-linecap="round" stroke-linejoin="round" stroke-width="1"/><rect id="rect376" width="5.669" height="5.669" x="270.709" y="56.693" fill="#fff"/><rect id="rect378" width="5.669" height="5.669" x="270.709" y="56.693" stroke="#000" stroke-linecap="round" stroke-linejoin="round" stroke-width="1"/><line id="line380" x1="265.039" x2="111.969" y1="62.362" y2="85.039" stroke="#000" stroke-linecap="round" stroke-linejoin="round" stroke-width="1"/><line id="line382" x1="265.039" x2="214.016" y1="62.362" y2="85.039" stroke="#000" stroke-linecap="round" stroke-linejoin="round" stroke-width="1"/><line id="line384" x1="265.039" x2="316.063" y1="62.362" y2="85.039" stroke="#000" stroke-linecap="round" stroke-linejoin="round" stroke-width="1"/><line id="line386" x1="265.039" x2="418.11" y1="62.362" y2="85.039" stroke="#000" stroke-linecap="round" stroke-linejoin="round" stroke-width="1"/></g></g></svg>