<svg xmlns="http://www.w3.org/2000/svg" xmlns:svg="http://www.w3.org/2000/svg" id="svg2" width="1190" height="280" preserveAspectRatio="xMinYMin meet" version="1.1" viewBox="0 0 510 120" xml:space="preserve"><metadata id="metadata18"/><g id="g3606"><path id="path2826" d="m 404.22716,54.978906 10.66995,-7.786021 17.33835,12.702514 -17.72926,8.42877 -10.27904,-13.345263 z" style="fill:#947300;fill-opacity:1;stroke:none"/><path style="fill:#d77" id="path4" d="M 10.114787,10 27.078676,104.38709 109.07079,84.858729"/><path id="path8" d="m 145.42856,11 -18,87 58,12 18,-87 z" style="fill:none;stroke:#000;stroke-width:1.875;stroke-linejoin:round;stroke-miterlimit:4;stroke-dasharray:none"/><path id="path10" d="m 234,91 63,18 26,-44 -9,-43 -73,-13 -16,46 28,-18 47,13 -16,33 -20,-6 6,-16 h -26 z" style="fill:#0f0;stroke:#00f;stroke-width:1.875;stroke-linejoin:round;stroke-miterlimit:4;stroke-dasharray:none"/><path id="path12" d="M 467.16363,8.9826508 444.96255,108.01735 378.35932,20.986857 499.01735,108.01735 477.78154,37.992815 332.02664,108.01735 z" style="fill:#dbab3f;fill-rule:evenodd;stroke:#000;stroke-width:1.875;stroke-linejoin:round;stroke-miterlimit:4;stroke-dasharray:none"/></g></svg>